<?xml version="1.0" encoding="utf-8"?>
<!-- Generator: Adobe Illustrator 25.0.1, SVG Export Plug-In . SVG Version: 6.00 Build 0)  -->
<svg version="1.1" id="Layer_1" xmlns="http://www.w3.org/2000/svg" xmlns:xlink="http://www.w3.org/1999/xlink" x="0px" y="0px"
	 viewBox="0 0 265 66" enable-background="new 0 0 265 66" xml:space="preserve">
<g>
	<path fill="#F8FAFC" d="M42.686,49.711l-26.59,7.158c-0.934,0.254-1.933-0.129-2.467-0.945L3.797,40.82L1.196,46.66
		c-0.393,0.887-0.17,1.922,0.55,2.574l17.333,15.607c0.723,0.649,1.777,0.759,2.617,0.277l20.202-11.663
		c0.84-0.485,1.271-1.459,1.068-2.407L42.686,49.711z"/>
	<path fill="#F8FAFC" d="M14.445,44.497c-0.985,0-1.86-0.638-2.17-1.578L6.482,25.085l-4.466,5.522
		c-0.419,0.527-0.461,1.264-0.091,1.829L15.166,52.76c0.365,0.567,1.053,0.833,1.702,0.657l23.425-6.305
		c0.654-0.178,1.117-0.751,1.152-1.422l0.059-1.192H14.445z"/>
	<path fill="#F8FAFC" d="M27.46,1.182L7.774,15.488c-0.524,0.379-0.744,1.053-0.543,1.668l7.521,23.147
		c0.202,0.614,0.768,1.032,1.419,1.032h24.333c0.649,0,1.222-0.417,1.424-1.032l7.52-23.147c0.203-0.615-0.02-1.289-0.538-1.668
		L29.222,1.182C28.696,0.8,27.982,0.8,27.46,1.182"/>
</g>
<g>
	<path fill="#F8FAFC" d="M110.157,37.797c0,11.473-8.316,20.327-18.402,20.327c-5.159,0-8.931-1.771-11.472-4.697v3.619H68.733
		V3.149h11.549v19.018c2.541-2.926,6.313-4.697,11.472-4.697C101.841,17.47,110.157,26.325,110.157,37.797z M98.607,37.797
		c0-5.774-3.85-9.394-9.163-9.394c-5.313,0-9.163,3.619-9.163,9.394s3.85,9.394,9.163,9.394
		C94.757,47.19,98.607,43.571,98.607,37.797z"/>
	<path fill="#F8FAFC" d="M115.548,8.23c0-3.773,3.157-6.93,6.93-6.93c3.772,0,6.93,3.157,6.93,6.93s-3.157,6.93-6.93,6.93
		C118.705,15.16,115.548,12.003,115.548,8.23z M116.703,18.548h11.549v38.498h-11.549V18.548z"/>
	<path fill="#F8FAFC" d="M134.797,37.797c0-11.472,9.086-20.327,20.404-20.327s20.404,8.854,20.404,20.327
		c0,11.473-9.086,20.327-20.404,20.327S134.797,49.27,134.797,37.797z M164.056,37.797c0-5.467-3.85-9.085-8.854-9.085
		s-8.854,3.619-8.854,9.085s3.85,9.086,8.854,9.086S164.056,43.264,164.056,37.797z"/>
	<path fill="#F8FAFC" d="M182.151,0.839h11.55v56.207h-11.55V0.839z"/>
	<path fill="#F8FAFC" d="M201.017,8.23c0-3.773,3.156-6.93,6.93-6.93c3.772,0,6.93,3.157,6.93,6.93s-3.157,6.93-6.93,6.93
		C204.173,15.16,201.017,12.003,201.017,8.23z M202.171,18.548h11.55v38.498h-11.55V18.548z"/>
	<path fill="#F8FAFC" d="M263.614,37.797c0,11.473-8.315,20.327-18.401,20.327c-5.159,0-8.932-1.771-11.473-4.697v3.619h-11.55
		V3.149h11.55v19.018c2.541-2.926,6.313-4.697,11.473-4.697C255.299,17.47,263.614,26.325,263.614,37.797z M252.065,37.797
		c0-5.774-3.85-9.394-9.163-9.394c-5.312,0-9.162,3.619-9.162,9.394s3.85,9.394,9.162,9.394
		C248.216,47.19,252.065,43.571,252.065,37.797z"/>
</g>
</svg>
